<svg width="48" height="48" viewBox="0 0 48 48" fill="none" xmlns="http://www.w3.org/2000/svg">
<g clip-path="url(#clip0_351_3897)">
<path d="M32.0002 15.9993H29.3335C29.3335 13.0527 26.9468 10.666 24.0002 10.666C21.0535 10.666 18.6668 13.0527 18.6668 15.9993H16.0002C14.5335 15.9993 13.3335 17.1993 13.3335 18.666V34.666C13.3335 36.1327 14.5335 37.3327 16.0002 37.3327H32.0002C33.4668 37.3327 34.6668 36.1327 34.6668 34.666V18.666C34.6668 17.1993 33.4668 15.9993 32.0002 15.9993ZM24.0002 13.3327C25.4668 13.3327 26.6668 14.5327 26.6668 15.9993H21.3335C21.3335 14.5327 22.5335 13.3327 24.0002 13.3327ZM32.0002 34.666H16.0002V18.666H18.6668V21.3327C18.6668 22.066 19.2668 22.666 20.0002 22.666C20.7335 22.666 21.3335 22.066 21.3335 21.3327V18.666H26.6668V21.3327C26.6668 22.066 27.2668 22.666 28.0002 22.666C28.7335 22.666 29.3335 22.066 29.3335 21.3327V18.666H32.0002V34.666Z" fill="#002F52"/>
</g>
<defs>
<clipPath id="clip0_351_3897">
<rect width="32" height="32" fill="white" transform="translate(8 8)"/>
</clipPath>
</defs>
</svg>
